<svg xmlns="http://www.w3.org/2000/svg" width="57.814" height="46.854"><defs><linearGradient x1="255.768" y1="179.674" x2="255.768" y2="182.931" gradientUnits="userSpaceOnUse" id="a"><stop offset="0" stop-color="#2e2e2e"/><stop offset="1" stop-color="#2e2e2e"/></linearGradient><linearGradient x1="224.111" y1="172.837" x2="224.111" y2="179.385" gradientUnits="userSpaceOnUse" id="b"><stop offset="0" stop-color="#ff6060" stop-opacity="0"/><stop offset="1" stop-color="#ff6060"/></linearGradient><linearGradient x1="255.764" y1="172.885" x2="255.764" y2="179.3" gradientUnits="userSpaceOnUse" id="c"><stop offset="0" stop-color="#ff6060" stop-opacity="0"/><stop offset="1" stop-color="#ff6060"/></linearGradient><linearGradient x1="239.996" y1="156.698" x2="239.996" y2="176.507" gradientUnits="userSpaceOnUse" id="d"><stop offset="0" stop-color="red" stop-opacity="0"/><stop offset="1" stop-color="red"/></linearGradient><linearGradient x1="224.104" y1="179.72" x2="224.104" y2="182.959" gradientUnits="userSpaceOnUse" id="e"><stop offset="0" stop-color="#2e2e2e"/><stop offset="1" stop-color="#2e2e2e"/></linearGradient><linearGradient x1="240.062" y1="180.697" x2="240.062" y2="195.493" gradientUnits="userSpaceOnUse" id="f"><stop offset="0" stop-color="#ff9696"/><stop offset="1" stop-color="red"/></linearGradient><linearGradient x1="240.136" y1="175.61" x2="240.136" y2="177.092" gradientUnits="userSpaceOnUse" id="g"><stop offset="0" stop-color="#6c0000"/><stop offset="1" stop-color="red"/></linearGradient><linearGradient x1="240.09" y1="176.807" x2="240.09" y2="190.367" gradientUnits="userSpaceOnUse" id="h"><stop offset="0" stop-color="#424242"/><stop offset="1" stop-color="#1e1e1e"/></linearGradient><linearGradient x1="224.104" y1="178.806" x2="224.104" y2="179.756" gradientUnits="userSpaceOnUse" id="i"><stop offset="0" stop-color="#f30000"/><stop offset="1" stop-color="#780000"/></linearGradient><linearGradient x1="255.762" y1="178.707" x2="255.762" y2="179.686" gradientUnits="userSpaceOnUse" id="j"><stop offset="0" stop-color="#f30000"/><stop offset="1" stop-color="#780000"/></linearGradient></defs><g data-paper-data="{&quot;isPaintingLayer&quot;:true}" stroke="#000" stroke-miterlimit="10" style="mix-blend-mode:normal"><path d="M5.341 26.323v-3.48h1.288v3.48zM19.653 26.119V22.64h1.288v3.479zM37.03 26.092v-3.427h1.289v3.427zM51.272 26.427v-3.48h1.289v3.48z" data-paper-data="{&quot;origPos&quot;:null,&quot;origRot&quot;:0}" fill="red" stroke-width=".5"/><path d="m263.34 179.896-.072 2.887-15.071.148v-3.257z" data-paper-data="{&quot;origPos&quot;:null,&quot;origRot&quot;:0}" fill="url(#a)" stroke="none" transform="translate(-210.968 -156.698)"/><path d="m216.084 172.871 16.054-.034-.211 6.548h-15.632z" data-paper-data="{&quot;origPos&quot;:null,&quot;origRot&quot;:0}" fill="url(#b)" stroke="none" transform="translate(-210.968 -156.698)"/><path d="m247.737 172.918 16.054-.033-.211 6.415h-15.632z" data-paper-data="{&quot;origPos&quot;:null,&quot;origRot&quot;:0}" fill="url(#c)" stroke="none" transform="translate(-210.968 -156.698)"/><path d="m236.013 156.803 7.966-.105-.105 19.809h-7.756z" data-paper-data="{&quot;origPos&quot;:null,&quot;origRot&quot;:0}" fill="url(#d)" stroke="none" transform="translate(-210.968 -156.698)"/><path d="M231.716 179.72v3.239l-15.152-.147-.072-2.871z" data-paper-data="{&quot;origPos&quot;:null,&quot;index&quot;:null,&quot;origRot&quot;:0}" fill="url(#e)" stroke="none" transform="translate(-210.968 -156.698)"/><path d="M20.903 34.615v-8.5h16v8.5s-4.833 11.989-8.004 11.989c-3.074 0-7.996-11.989-7.996-11.989z" data-paper-data="{&quot;origPos&quot;:null,&quot;origRot&quot;:0}" fill="#2e2e2e" stroke-width=".5"/><path d="M244.124 188.095c0 4.086-1.818 7.398-4.062 7.398s-4.063-3.312-4.063-7.398 1.82-7.398 4.063-7.398c2.244 0 4.062 3.312 4.062 7.398z" data-paper-data="{&quot;origPos&quot;:null,&quot;origRot&quot;:0}" fill="url(#f)" stroke-width=".5" transform="translate(-210.968 -156.698)"/><path d="M21.06 34.612 1.218 26.108h19.713z" data-paper-data="{&quot;origPos&quot;:null,&quot;origRot&quot;:0}" fill="#2e2e2e" stroke-width=".5" stroke-linecap="round"/><path d="M36.883 26.083h19.713l-19.842 8.504z" data-paper-data="{&quot;origPos&quot;:null,&quot;index&quot;:null,&quot;origRot&quot;:0}" fill="#2e2e2e" stroke-width=".5" stroke-linecap="round"/><path d="M244.119 176.35c0 .41-1.784.742-3.983.742-2.2 0-3.982-.332-3.982-.741 0-.41 1.783-.741 3.982-.741 2.2 0 3.983.331 3.983.74z" data-paper-data="{&quot;origPos&quot;:null,&quot;index&quot;:null,&quot;origRot&quot;:0}" fill="url(#g)" stroke-width=".5" transform="translate(-210.968 -156.698)"/><path d="M240.09 177.115c1.685 0 4.03-.308 4.03-.308s-1.417 3.424-1.417 5.698c0 1.455.936 3.924.936 3.924s-1.815 1.779-3.612 1.779c-1.348 0-3.349-1.779-3.349-1.779s.412-2.39.412-3.795c0-2.324-1.03-5.827-1.03-5.827s2.57.308 4.03.308z" data-paper-data="{&quot;origPos&quot;:null,&quot;index&quot;:null,&quot;origRot&quot;:0}" fill="url(#h)" stroke-width=".5" transform="translate(-210.968 -156.698)"/><path d="m25.054 31.949.894-7.8 6.123-.068 1.1 7.868z" data-paper-data="{&quot;origPos&quot;:null,&quot;origRot&quot;:0}" fill="#2e2e2e" stroke-width=".5"/><path d="M216.309 179.756v-.95h15.59v.95z" data-paper-data="{&quot;origPos&quot;:null,&quot;origRot&quot;:0}" fill="url(#i)" stroke-width=".5" transform="translate(-210.968 -156.698)"/><path d="M247.995 179.686v-.979h15.534v.979z" data-paper-data="{&quot;origPos&quot;:null,&quot;origRot&quot;:0}" fill="url(#j)" stroke-width=".5" transform="translate(-210.968 -156.698)"/></g></svg>