<svg xmlns="http://www.w3.org/2000/svg" width="48.303" height="39.779"><defs><linearGradient x1="222.187" y1="183.709" x2="222.187" y2="185.01" gradientUnits="userSpaceOnUse" id="n"><stop offset="0" stop-color="#1e1e1e"/><stop offset="1" stop-color="#1e1e1e"/></linearGradient><linearGradient x1="240.123" y1="177.047" x2="240.123" y2="179.047" gradientUnits="userSpaceOnUse" id="a"><stop offset="0" stop-color="#313131"/><stop offset="1" stop-color="#171717"/></linearGradient><linearGradient x1="240.034" y1="171.975" x2="240.034" y2="177.268" gradientUnits="userSpaceOnUse" id="c"><stop offset="0" stop-color="#999"/><stop offset="1" stop-color="#787878"/></linearGradient><linearGradient x1="231.839" y1="179.046" x2="231.839" y2="188.127" gradientUnits="userSpaceOnUse" id="d"><stop offset="0" stop-color="#424242"/><stop offset="1" stop-color="#1e1e1e"/></linearGradient><linearGradient x1="248.511" y1="179.046" x2="248.511" y2="188.127" gradientUnits="userSpaceOnUse" id="e"><stop offset="0" stop-color="#424242"/><stop offset="1" stop-color="#1e1e1e"/></linearGradient><linearGradient x1="222.176" y1="159.66" x2="222.176" y2="183.66" gradientUnits="userSpaceOnUse" id="f"><stop offset="0" stop-color="#424242"/><stop offset="1" stop-color="#1e1e1e"/></linearGradient><linearGradient x1="240.012" y1="173.051" x2="240.012" y2="178.903" gradientUnits="userSpaceOnUse" id="g"><stop offset="0" stop-color="#ff3600"/><stop offset="1" stop-color="#ff7800"/></linearGradient><linearGradient x1="258.054" y1="160.013" x2="258.054" y2="184.013" gradientUnits="userSpaceOnUse" id="h"><stop offset="0" stop-color="#424242"/><stop offset="1" stop-color="#1e1e1e"/></linearGradient><linearGradient x1="234.287" y1="167.644" x2="234.287" y2="170.582" gradientUnits="userSpaceOnUse" id="y"><stop offset="0" stop-color="#424242"/><stop offset="1" stop-color="#1e1e1e"/></linearGradient><linearGradient x1="245.804" y1="167.64" x2="245.804" y2="170.578" gradientUnits="userSpaceOnUse" id="w"><stop offset="0" stop-color="#424242"/><stop offset="1" stop-color="#1e1e1e"/></linearGradient><linearGradient x1="239.919" y1="196.563" x2="239.919" y2="198.134" gradientUnits="userSpaceOnUse" id="k"><stop offset="0" stop-color="#1e1e1e"/><stop offset="1" stop-color="#1e1e1e"/></linearGradient><linearGradient x1="240.007" y1="194.961" x2="240.007" y2="196.532" gradientUnits="userSpaceOnUse" id="l"><stop offset="0" stop-color="#393939"/><stop offset="1" stop-color="#222"/></linearGradient><linearGradient x1="240.068" y1="192.513" x2="240.068" y2="194.758" gradientUnits="userSpaceOnUse" id="m"><stop offset="0" stop-color="#5b5b5b"/><stop offset="1" stop-color="#393939"/></linearGradient><linearGradient x1="240.098" y1="170.679" x2="240.098" y2="176.876" gradientUnits="userSpaceOnUse" id="b"><stop offset="0" stop-color="#5d5d5d"/><stop offset="1" stop-color="#313131"/></linearGradient><linearGradient x1="258.037" y1="183.957" x2="258.037" y2="185.259" gradientUnits="userSpaceOnUse" id="o"><stop offset="0" stop-color="#1e1e1e"/><stop offset="1" stop-color="#1e1e1e"/></linearGradient><linearGradient x1="231.842" y1="187.457" x2="231.842" y2="188.758" gradientUnits="userSpaceOnUse" id="p"><stop offset="0" stop-color="#1e1e1e"/><stop offset="1" stop-color="#1e1e1e"/></linearGradient><linearGradient x1="248.512" y1="187.429" x2="248.512" y2="188.731" gradientUnits="userSpaceOnUse" id="q"><stop offset="0" stop-color="#1e1e1e"/><stop offset="1" stop-color="#1e1e1e"/></linearGradient><linearGradient x1="228.56" y1="169.476" x2="228.56" y2="175.508" gradientUnits="userSpaceOnUse" id="r"><stop offset="0" stop-color="#424242"/><stop offset="1" stop-color="#1e1e1e"/></linearGradient><linearGradient x1="251.663" y1="169.435" x2="251.663" y2="175.468" gradientUnits="userSpaceOnUse" id="t"><stop offset="0" stop-color="#424242"/><stop offset="1" stop-color="#1e1e1e"/></linearGradient><radialGradient cx="228.762" cy="169.245" r="2.455" gradientUnits="userSpaceOnUse" id="s"><stop offset="0" stop-color="#ff1f00"/><stop offset="1" stop-color="#ff4b00"/></radialGradient><radialGradient cx="251.422" cy="169.143" r="2.455" gradientUnits="userSpaceOnUse" id="u"><stop offset="0" stop-color="#ff1f00"/><stop offset="1" stop-color="#ff4b00"/></radialGradient><radialGradient cx="257.611" cy="160.852" r="1.455" gradientUnits="userSpaceOnUse" id="v"><stop offset="0" stop-color="#ff1c00"/><stop offset="1" stop-color="#ff4f00"/></radialGradient><radialGradient cx="257.288" cy="160.682" r="1.455" gradientUnits="userSpaceOnUse" id="j"><stop offset="0" stop-color="#ff1c00"/><stop offset="1" stop-color="#ff4f00"/></radialGradient><radialGradient cx="245.678" cy="167.443" r="1.195" gradientUnits="userSpaceOnUse" id="x"><stop offset="0" stop-color="#ffa991"/><stop offset="1" stop-color="#ff7c61"/></radialGradient><radialGradient cx="222.617" cy="160.791" r="1.455" gradientUnits="userSpaceOnUse" id="i"><stop offset="0" stop-color="#ff1c00"/><stop offset="1" stop-color="#ff4f00"/></radialGradient><radialGradient cx="234.161" cy="167.447" r="1.195" gradientUnits="userSpaceOnUse" id="z"><stop offset="0" stop-color="#ffa991"/><stop offset="1" stop-color="#ff7c61"/></radialGradient></defs><g data-paper-data="{&quot;isPaintingLayer&quot;:true}" fill="none" stroke-width="none" stroke-linecap="none" stroke-miterlimit="10" font-family="none" font-weight="none" font-size="none" text-anchor="none" style="mix-blend-mode:normal"><path d="M28.942 12.726V9.361h1.835v3.365zM17.416 12.722V9.357h1.836v3.365z" data-paper-data="{&quot;origPos&quot;:null}" fill="#6b6b6b" stroke="#000" stroke-width=".5" stroke-linecap="butt"/><path d="M22.796 38.637V25.78l1.302-.13 1.465.13v12.856z" data-paper-data="{&quot;origPos&quot;:null}" fill="#ff754f" stroke="#ff2c00" stroke-width=".5" stroke-linecap="butt"/><path d="M23.72 33.16v-6.326h.886v6.326z" fill="#fff"/><path d="M216.234 179.047v-2h47.778v2z" data-paper-data="{&quot;origPos&quot;:null}" fill="url(#a)" stroke="#000" stroke-width=".5" stroke-linecap="butt" transform="translate(-215.96 -159.191)"/><path d="M216.21 176.876v-1.342l23.766-4.855 24.01 4.855v1.342z" data-paper-data="{&quot;origPos&quot;:null}" fill="url(#b)" stroke="#000" stroke-width=".5" stroke-linecap="butt" transform="translate(-215.96 -159.191)"/><path d="m17.435 12.796 2.42-1.01 3.526-5.12 1.658.022 3.213 4.904 2.772 1.275-2.134 12.44-4.796 1.711-4.675-1.71z" data-paper-data="{&quot;origPos&quot;:null,&quot;index&quot;:null}" fill="#5b5b5b" stroke="#000" stroke-width=".5" stroke-linecap="butt"/><path d="m20.217 12.212 1.85-5.382s1.244-1.49 2.04-1.485c.771.004 1.975 1.507 1.975 1.507l2.037 5.152v12.27s-2.387 2.908-4.01 2.908c-1.46 0-3.892-2.907-3.892-2.907z" data-paper-data="{&quot;origPos&quot;:null,&quot;index&quot;:null}" fill="#5b5b5b" stroke="#000" stroke-width=".5" stroke-linecap="butt"/><path d="M240.034 174.731c-1.42 0-2.573 3.94-2.573 2s1.152-4.756 2.573-4.756 2.573 2.815 2.573 4.756c0 1.94-1.152-2-2.573-2z" data-paper-data="{&quot;origPos&quot;:null,&quot;index&quot;:null}" fill="url(#c)" stroke="#000" stroke-width=".5" stroke-linecap="butt" transform="translate(-215.96 -159.191)"/><path d="M230.432 188.127v-9.081h2.813v9.081z" data-paper-data="{&quot;origPos&quot;:null}" fill="url(#d)" stroke="#000" stroke-width=".5" stroke-linecap="butt" transform="translate(-215.96 -159.191)"/><path d="M247.104 188.127v-9.081h2.815v9.081z" data-paper-data="{&quot;origPos&quot;:null}" fill="url(#e)" stroke="#000" stroke-width=".5" stroke-linecap="butt" transform="translate(-215.96 -159.191)"/><path d="m220.248 183.517.285-19.857.858-4h2.571l.143 24z" data-paper-data="{&quot;origPos&quot;:null}" fill="url(#f)" stroke="#000" stroke-width=".5" stroke-linecap="round" transform="translate(-215.96 -159.191)"/><path d="M26.893 12.147c0 1.578-1.723-2.765-2.839-2.765-1.115 0-2.67 4.35-2.67 2.772 0-1.578 1.565-4.986 2.68-4.986 1.116 0 2.829 3.401 2.829 4.98z" data-paper-data="{&quot;origPos&quot;:null}" fill="#fff" stroke="#000" stroke-width=".5" stroke-linecap="butt"/><path d="M240.012 173.05c.924 0 1.674 1.31 1.674 2.927 0 1.616-.75 2.926-1.674 2.926-.924 0-1.674-1.31-1.674-2.926s.75-2.926 1.674-2.926z" data-paper-data="{&quot;origPos&quot;:null,&quot;index&quot;:null}" fill="url(#g)" stroke="#000" stroke-width=".5" stroke-linecap="butt" transform="translate(-215.96 -159.191)"/><path d="M7.534 23.928 7.637.896" data-paper-data="{&quot;origPos&quot;:null}" stroke="#ff3600" stroke-width=".5" stroke-linecap="round"/><path d="m256.126 184.013.143-24h2.571l.857 4 .286 19.857z" data-paper-data="{&quot;index&quot;:null,&quot;origPos&quot;:null}" fill="url(#h)" stroke="#000" stroke-width=".5" stroke-linecap="round" transform="translate(-215.96 -159.191)"/><path d="m40.675 1.25.103 23.031" data-paper-data="{&quot;index&quot;:null,&quot;origPos&quot;:null}" stroke="#ff3600" stroke-width=".5" stroke-linecap="round"/><path d="m220.963 161.699.564-2.253h2.347v2.16z" data-paper-data="{&quot;origPos&quot;:null}" fill="url(#i)" stroke="#000" stroke-width=".5" stroke-linecap="butt" transform="translate(-215.96 -159.191)"/><path d="M256.24 161.6v-2.159h2.347l.563 2.253z" data-paper-data="{&quot;origPos&quot;:null,&quot;index&quot;:null}" fill="url(#j)" stroke="#000" stroke-width=".5" stroke-linecap="butt" transform="translate(-215.96 -159.191)"/><path d="M32.455 37.8v1.143l-17.116-.286v-1.143z" data-paper-data="{&quot;origPos&quot;:null}" stroke="#000" stroke-width=".5" stroke-linecap="round"/><path d="M15.636 38.086V37.7h16.623v.386z" data-paper-data="{&quot;origPos&quot;:null}" fill="#1e1e1e" stroke="#545454" stroke-width=".5" stroke-linecap="butt"/><path d="M231.298 198.134v-1.571h17.241v1.571z" data-paper-data="{&quot;origPos&quot;:null}" fill="url(#k)" stroke="#000" stroke-width=".5" stroke-linecap="butt" transform="translate(-215.96 -159.191)"/><path d="m226.032 196.532 3.105-1.571h22.198l2.647 1.571z" data-paper-data="{&quot;origPos&quot;:null}" fill="url(#l)" stroke="#000" stroke-width=".5" stroke-linecap="butt" transform="translate(-215.96 -159.191)"/><path d="M15.6 38.683v-.573h16.72v.573z" data-paper-data="{&quot;origPos&quot;:null}" fill="#ff2c00"/><path d="M233.333 194.758v-2.245h13.47v2.245z" data-paper-data="{&quot;origPos&quot;:null}" fill="url(#m)" stroke="#000" stroke-width=".5" stroke-linecap="butt" transform="translate(-215.96 -159.191)"/><path d="M24.122 34.29c.988 0 2.38.94 2.38.94v3.158s-1.402 1.14-2.39 1.14c-.822 0-2.248-1.14-2.248-1.14V35.23s1.435-.94 2.258-.94z" data-paper-data="{&quot;origPos&quot;:null,&quot;index&quot;:null}" fill="#5b5b5b" stroke="#000" stroke-width=".5" stroke-linecap="butt"/><g data-paper-data="{&quot;origPos&quot;:null}" stroke="#000" stroke-width=".5" stroke-linecap="butt"><path d="M220.234 185.01v-1.301h3.906v1.301z" data-paper-data="{&quot;origPos&quot;:null}" fill="url(#n)" transform="translate(-215.96 -159.191)"/><path d="M4.275 26.6v-1.03H8.18v1.03z" data-paper-data="{&quot;origPos&quot;:null}" fill="#ff2c00"/></g><g data-paper-data="{&quot;origPos&quot;:null,&quot;index&quot;:null}" stroke="#000" stroke-width=".5" stroke-linecap="butt"><path d="M256.084 185.259v-1.302h3.905v1.302z" data-paper-data="{&quot;origPos&quot;:null}" fill="url(#o)" transform="translate(-215.96 -159.191)"/><path d="M40.125 26.849v-1.03h3.905v1.03z" data-paper-data="{&quot;origPos&quot;:null}" fill="#ff2c00"/></g><path d="M230.448 188.758v-1.301h2.788v1.301z" data-paper-data="{&quot;origPos&quot;:null}" fill="url(#p)" stroke="#000" stroke-width=".5" stroke-linecap="butt" transform="translate(-215.96 -159.191)"/><path d="M14.489 30.348v-1.03h2.788v1.03z" data-paper-data="{&quot;origPos&quot;:null}" fill="#ff2c00" stroke="#000" stroke-width=".5" stroke-linecap="butt"/><path d="M247.118 188.73v-1.301h2.788v1.302z" data-paper-data="{&quot;origPos&quot;:null}" fill="url(#q)" stroke="#000" stroke-width=".5" stroke-linecap="butt" transform="translate(-215.96 -159.191)"/><path d="M31.159 30.382v-1.03h2.787v1.03z" data-paper-data="{&quot;origPos&quot;:null}" fill="#ff2c00" stroke="#000" stroke-width=".5" stroke-linecap="butt"/><g data-paper-data="{&quot;origPos&quot;:null,&quot;index&quot;:null}" stroke-width=".5"><path d="M228.56 169.613c.9 0 2.484-.137 2.484-.137v4.25s-1.534 1.782-2.365 1.782c-1.108 0-2.603-1.782-2.603-1.782v-4.25s1.446.137 2.484.137z" data-paper-data="{&quot;origPos&quot;:null,&quot;index&quot;:null}" fill="url(#r)" stroke="#000" stroke-linecap="butt" transform="translate(-215.96 -159.191)"/><path d="m13.8 10.44.213 5.085s-.748.66-1.09.672c-.334.011-.76-.205-.76-.205l-.117-5.494z" data-paper-data="{&quot;origPos&quot;:null,&quot;index&quot;:null}" fill="#737373" stroke="#000" stroke-linecap="butt"/><path d="m12.923 15.642-.117-4.851" data-paper-data="{&quot;origPos&quot;:null,&quot;index&quot;:null}" stroke="#ff3600" stroke-linecap="round"/><path d="M228.532 168.58c1.355 0 2.454.248 2.454.554 0 .307-1.099.556-2.454.556-1.356 0-2.455-.249-2.455-.556 0-.306 1.1-.555 2.455-.555z" data-paper-data="{&quot;origPos&quot;:null,&quot;index&quot;:null}" fill="url(#s)" stroke="#000" stroke-linecap="butt" transform="translate(-215.96 -159.191)"/></g><g data-paper-data="{&quot;origPos&quot;:null}" stroke-width=".5"><path d="M251.663 169.573c1.038 0 2.484-.138 2.484-.138v4.25s-1.495 1.783-2.603 1.783c-.83 0-2.366-1.783-2.366-1.783v-4.25s1.584.138 2.485.138z" data-paper-data="{&quot;origPos&quot;:null,&quot;index&quot;:null}" fill="url(#t)" stroke="#000" stroke-linecap="butt" transform="translate(-215.96 -159.191)"/><path d="m36.258 10.458-.117 5.494s-.426.216-.76.205c-.342-.012-1.09-.673-1.09-.673l.213-5.084z" data-paper-data="{&quot;origPos&quot;:null,&quot;index&quot;:null}" fill="#737373" stroke="#000" stroke-linecap="butt"/><path d="m35.381 15.601.117-4.85" data-paper-data="{&quot;origPos&quot;:null,&quot;index&quot;:null}" stroke="#ff3600" stroke-linecap="round"/><path d="M254.146 169.094c0 .307-1.1.555-2.455.555-1.356 0-2.455-.248-2.455-.555 0-.307 1.1-.555 2.455-.555 1.356 0 2.455.248 2.455.555z" data-paper-data="{&quot;origPos&quot;:null,&quot;index&quot;:null}" fill="url(#u)" stroke="#000" stroke-linecap="butt" transform="translate(-215.96 -159.191)"/></g><path d="M256.354 161.666v-2.16h2.347l.564 2.253z" data-paper-data="{&quot;origPos&quot;:null,&quot;index&quot;:null}" fill="url(#v)" stroke="#000" stroke-width=".5" stroke-linecap="butt" transform="translate(-215.96 -159.191)"/><path d="M26.068 14.908c0 1.941-.89 4.757-1.986 4.757-1.097 0-1.986-2.816-1.986-4.757 0-1.94.889 2 1.986 2s1.986-3.94 1.986-2z" data-paper-data="{&quot;origPos&quot;:null}" fill="#787878" stroke="#000" stroke-width=".5" stroke-linecap="butt"/><g data-paper-data="{&quot;origPos&quot;:null}" stroke="#000" stroke-width=".5" stroke-linecap="butt"><path d="M245.804 167.707c.506 0 1.21-.067 1.21-.067v2.07s-.728.868-1.268.868c-.404 0-1.152-.868-1.152-.868v-2.07s.772.067 1.21.067z" data-paper-data="{&quot;origPos&quot;:null,&quot;index&quot;:null}" fill="url(#w)" transform="translate(-215.96 -159.191)"/><path d="M247.013 167.474c0 .15-.535.27-1.195.27s-1.195-.12-1.195-.27c0-.15.535-.27 1.195-.27s1.195.12 1.195.27z" data-paper-data="{&quot;origPos&quot;:null,&quot;index&quot;:null}" fill="url(#x)" transform="translate(-215.96 -159.191)"/></g><g data-paper-data="{&quot;origPos&quot;:null}" stroke="#000" stroke-width=".5" stroke-linecap="butt"><path d="M234.287 167.711c.506 0 1.21-.067 1.21-.067v2.07s-.728.868-1.268.868c-.404 0-1.152-.868-1.152-.868v-2.07s.771.067 1.21.067z" data-paper-data="{&quot;origPos&quot;:null,&quot;index&quot;:null}" fill="url(#y)" transform="translate(-215.96 -159.191)"/><path d="M235.496 167.478c0 .15-.535.27-1.195.27s-1.196-.12-1.196-.27c0-.15.536-.27 1.196-.27.66 0 1.195.12 1.195.27z" data-paper-data="{&quot;origPos&quot;:null,&quot;index&quot;:null}" fill="url(#z)" transform="translate(-215.96 -159.191)"/></g></g></svg>