<svg xmlns="http://www.w3.org/2000/svg" width="48.389" height="33.855"><defs><linearGradient x1="244.736" y1="187.888" x2="247.675" y2="187.888" gradientUnits="userSpaceOnUse" id="a"><stop offset="0" stop-color="red"/><stop offset="1" stop-color="#c70000"/></linearGradient><linearGradient x1="232.404" y1="187.14" x2="235.217" y2="187.14" gradientUnits="userSpaceOnUse" id="b"><stop offset="0" stop-color="#c70000"/><stop offset="1" stop-color="red"/></linearGradient><linearGradient x1="220" y1="176" x2="223.857" y2="176" gradientUnits="userSpaceOnUse" id="c"><stop offset="0" stop-color="#d20000"/><stop offset="1" stop-color="#ff1818"/></linearGradient><linearGradient x1="239.857" y1="186.128" x2="239.857" y2="189.143" gradientUnits="userSpaceOnUse" id="d"><stop offset="0" stop-color="#ff1818"/><stop offset="1" stop-color="#d20000"/></linearGradient><linearGradient x1="256.002" y1="176.053" x2="259.86" y2="176.053" gradientUnits="userSpaceOnUse" id="f"><stop offset="0" stop-color="#ff1818"/><stop offset="1" stop-color="#d20000"/></linearGradient><radialGradient cx="233.733" cy="181.581" r="2.963" gradientUnits="userSpaceOnUse" id="e"><stop offset="0" stop-color="#00fff3"/><stop offset="1" stop-color="#00edff"/></radialGradient><radialGradient cx="222.328" cy="165.211" r="1.455" gradientUnits="userSpaceOnUse" id="g"><stop offset="0" stop-color="#f7ff00"/><stop offset="1" stop-color="#ffa100"/></radialGradient><radialGradient cx="257.403" cy="165.322" r="1.455" gradientUnits="userSpaceOnUse" id="h"><stop offset="0" stop-color="#f7ff00"/><stop offset="1" stop-color="#ffa100"/></radialGradient><radialGradient cx="233.733" cy="181.581" r="2.963" gradientUnits="userSpaceOnUse" id="i"><stop offset="0" stop-color="#00fff3"/><stop offset="1" stop-color="#00edff"/></radialGradient></defs><g data-paper-data="{&quot;isPaintingLayer&quot;:true}" fill="none" stroke-width="none" stroke-linecap="none" stroke-miterlimit="10" font-family="none" font-weight="none" font-size="none" text-anchor="none" style="mix-blend-mode:normal"><path d="M.336 17.68v-1.342l23.767-4.854 24.01 4.854v1.343z" data-paper-data="{&quot;origPos&quot;:null}" fill="red" stroke="#000" stroke-width=".5" stroke-linecap="butt"/><path d="M244.736 193.102v-10.428h2.939v10.428z" data-paper-data="{&quot;origPos&quot;:null}" fill="url(#a)" stroke="#000" stroke-width=".5" stroke-linecap="butt" transform="translate(-215.75 -163.685)"/><path d="M232.404 192.354v-10.429h2.813v10.429z" data-paper-data="{&quot;origPos&quot;:null}" fill="url(#b)" stroke="#000" stroke-width=".5" stroke-linecap="butt" transform="translate(-215.75 -163.685)"/><path d="M.336 17.68v-1.342l23.767-4.854 24.01 4.854v1.343z" data-paper-data="{&quot;origPos&quot;:null}" fill="red" stroke="#000" stroke-width=".5" stroke-linecap="butt"/><path d="M20.821 19.886.25 19.753v-3.586l19.857-3.852M28.107 12.029l20 4.128v3.73H27.393" data-paper-data="{&quot;origPos&quot;:null}" stroke="#000" stroke-width=".5" stroke-linecap="round"/><path d="M.361 19.852v-2H48.14v2z" data-paper-data="{&quot;origPos&quot;:null}" fill="#c10000" stroke="#000" stroke-width=".5" stroke-linecap="butt"/><path d="M32.25 12.743v-2.285h1.857v2.857M14.769 13.315l-.09-2.857h1.714v2.285" data-paper-data="{&quot;origPos&quot;:null}" fill="red" stroke="#000" stroke-width=".5" stroke-linecap="round"/><path d="m220 187.857.286-19.857.857-4h2.571l.143 24z" fill="url(#c)" stroke="#000" stroke-width=".5" stroke-linecap="round" transform="translate(-215.75 -163.685)"/><path d="M237.857 189.143v-3.015h4v3.015z" data-paper-data="{&quot;origPos&quot;:null}" fill="url(#d)" stroke="#000" stroke-width=".5" stroke-linecap="butt" transform="translate(-215.75 -163.685)"/><path d="M28.107 14.093c0 5.483-2.204 9.928-4.003 9.928-1.8 0-4.004-4.594-4.004-10.078 0-5.483 2.08-10.831 3.879-10.831 1.8 0 4.128 5.498 4.128 10.98z" data-paper-data="{&quot;origPos&quot;:null}" fill="red" stroke="#000" stroke-width=".5" stroke-linecap="butt"/><path d="m10.404 14.236-.09-2.858h1.714v2.286" data-paper-data="{&quot;origPos&quot;:null}" fill="red" stroke="#000" stroke-width=".5" stroke-linecap="round"/><path d="M36.536 13.458v-2.286h1.714l-.09 2.857" data-paper-data="{&quot;origPos&quot;:null,&quot;index&quot;:null}" fill="red" stroke="#000" stroke-width=".5" stroke-linecap="round"/><path d="M26.201 28.936c0 1.358-.895 2.46-1.999 2.46s-1.999-1.102-1.999-2.46c0-1.359.77-1.683 1.874-1.683s2.124.324 2.124 1.683z" data-paper-data="{&quot;origPos&quot;:null}" fill="red" stroke="#000" stroke-width=".5" stroke-linecap="butt"/><path d="M20.954 32.487v-2.715h6.496v2.715z" data-paper-data="{&quot;origPos&quot;:null}" fill="red" stroke="#000" stroke-width=".5" stroke-linecap="butt"/><path d="M32.573 32.458V33.6l-17.116-.285v-1.143z" data-paper-data="{&quot;origPos&quot;:null}" stroke="#000" stroke-width=".5" stroke-linecap="round"/><path d="M15.831 32.743v-.382h16.39v.382z" data-paper-data="{&quot;origPos&quot;:null}" fill="#ffc000" stroke="#545454" stroke-width=".5" stroke-linecap="butt"/><path d="M15.457 33.6V32.03h17.24V33.6z" data-paper-data="{&quot;origPos&quot;:null}" stroke="#000" stroke-width=".5" stroke-linecap="butt"/><path d="m10.19 30.415 3.105-1.572h22.198l2.647 1.572z" data-paper-data="{&quot;origPos&quot;:null}" fill="red" stroke="#000" stroke-width=".5" stroke-linecap="butt"/><path d="M242.579 174.287c0 1.578-1.723-2.765-2.838-2.765-1.116 0-2.671 4.35-2.671 2.772 0-1.578 1.565-4.987 2.68-4.987 1.116 0 2.829 3.402 2.829 4.98z" data-paper-data="{&quot;origPos&quot;:null}" fill="url(#e)" stroke="#000" stroke-width=".5" stroke-linecap="butt" transform="translate(-215.75 -163.685)"/><path d="m7.599.742-.104 23.032" stroke="#ff9c00" stroke-width=".5" stroke-linecap="round"/><path d="M4.237 25.549v-1.302h3.905v1.302z" data-paper-data="{&quot;origPos&quot;:null}" fill="#3b3b3b" stroke="#000" stroke-width=".5" stroke-linecap="butt"/><path d="M22.107 26.07v-.781h3.999v.78zM4.237 26.33V25.3h3.905v1.03z" data-paper-data="{&quot;origPos&quot;:null}" fill="#f7ff00" stroke="#000" stroke-width=".5" stroke-linecap="butt"/><path d="m256.002 188.053.143-24h2.572l.857 4 .286 19.858z" data-paper-data="{&quot;index&quot;:null,&quot;origPos&quot;:null}" fill="url(#f)" stroke="#000" stroke-width=".5" stroke-linecap="round" transform="translate(-215.75 -163.685)"/><path d="m40.76.796.104 23.032" data-paper-data="{&quot;index&quot;:null,&quot;origPos&quot;:null}" stroke="#ff9c00" stroke-width=".5" stroke-linecap="round"/><path d="M40.218 25.602v-1.301h3.905v1.301z" data-paper-data="{&quot;origPos&quot;:null,&quot;index&quot;:null}" fill="#3b3b3b" stroke="#000" stroke-width=".5" stroke-linecap="butt"/><path d="M40.218 26.383v-1.03h3.905v1.03z" data-paper-data="{&quot;origPos&quot;:null,&quot;index&quot;:null}" fill="#f7ff00" stroke="#000" stroke-width=".5" stroke-linecap="butt"/><path d="m220.716 166.189.563-2.254h2.347v2.16z" data-paper-data="{&quot;origPos&quot;:null}" fill="url(#g)" stroke="#000" stroke-width=".5" stroke-linecap="butt" transform="translate(-215.75 -163.685)"/><path d="M256.116 166.24v-2.16h2.348l.563 2.254z" data-paper-data="{&quot;origPos&quot;:null,&quot;index&quot;:null}" fill="url(#h)" stroke="#000" stroke-width=".5" stroke-linecap="butt" transform="translate(-215.75 -163.685)"/><path d="M15.717 33.34v-.573h16.72v.573z" data-paper-data="{&quot;origPos&quot;:null}" fill="#ffc000"/><path d="M28.107 14.093c0 5.483-2.204 9.928-4.003 9.928-1.8 0-4.004-4.594-4.004-10.078 0-5.483 2.08-10.831 3.879-10.831 1.8 0 4.128 5.498 4.128 10.98z" data-paper-data="{&quot;origPos&quot;:null}" fill="red" stroke="#000" stroke-width=".5" stroke-linecap="butt"/><path d="M242.579 174.287c0 1.578-1.723-2.765-2.838-2.765-1.116 0-2.671 4.35-2.671 2.772 0-1.578 1.565-4.987 2.68-4.987 1.116 0 2.829 3.402 2.829 4.98z" data-paper-data="{&quot;origPos&quot;:null}" fill="url(#i)" stroke="#000" stroke-width=".5" stroke-linecap="butt" transform="translate(-215.75 -163.685)"/><path d="M21.357 13.055v-1.53s1.557-3.24 2.61-3.24c1.09 0 2.88 3.24 2.88 3.24v1.53s-1.7-2.97-2.79-2.97c-1.053 0-2.7 2.97-2.7 2.97z" data-paper-data="{&quot;origPos&quot;:null}" fill="#00fff3" stroke="#000" stroke-width=".5" stroke-linecap="butt"/><path d="m21.357 9.995-.18 3.69M26.758 9.545l.27 4.05" stroke="#000" stroke-width=".5" stroke-linecap="round"/></g></svg>