<svg version="1.1" xmlns="http://www.w3.org/2000/svg" xmlns:xlink="http://www.w3.org/1999/xlink" width="31.42249" height="51.35743" viewBox="0,0,31.42249,51.35743"><defs><linearGradient x1="239.77259" y1="141.55982" x2="240.20126" y2="183.59325" gradientUnits="userSpaceOnUse" id="color-1"><stop offset="0" stop-color="#228c00" stop-opacity="0"/><stop offset="1" stop-color="#228c00"/></linearGradient><radialGradient cx="239.64542" cy="171.03128" r="26.00308" gradientUnits="userSpaceOnUse" id="color-2"><stop offset="0" stop-color="#00ff0e"/><stop offset="1" stop-color="#005c20"/></radialGradient></defs><g transform="translate(-223.90976,-132.23645)"><g data-paper-data="{&quot;isPaintingLayer&quot;:true}" fill-rule="nonzero" stroke-width="0" stroke-linecap="butt" stroke-linejoin="miter" stroke-miterlimit="10" stroke-dasharray="" stroke-dashoffset="0" style="mix-blend-mode: normal"><path d="M255.33225,142.09675l-6.99132,31.4126c0,0 -2.72278,10.00664 -8.15165,10.0841c-5.42887,0.07744 -8.84653,-10.3601 -8.84653,-10.3601l-7.43299,-30.77857l11.0321,25.1423c0,0 -5.77484,-21.55554 -5.37908,-24.52415c0.31475,-2.36093 9.1939,18.85043 9.1939,18.85043l1.09494,-20.7591l1.26618,20.54953l8.78302,-19.0328l-4.977,24.69305z" data-paper-data="{&quot;origRot&quot;:0}" fill="url(#color-1)" stroke="none"/><path d="M243.25211,134.63236l0.4806,40.70507l-3.69044,7.11011l-3.8573,-7.02699l-0.4806,-40.70508c0,0 2.27232,-2.46273 3.74506,-2.47894c1.47279,-0.01623 3.80264,2.39588 3.80264,2.39588z" data-paper-data="{&quot;origPos&quot;:null,&quot;origRot&quot;:0}" fill="url(#color-2)" stroke="#000000"/></g></g></svg>