<svg xmlns="http://www.w3.org/2000/svg" width="42.116" height="44.103"><defs><radialGradient cx="239.855" cy="184.961" r="5.864" gradientUnits="userSpaceOnUse" id="d"><stop offset="0" stop-color="#9344d4"/><stop offset="1" stop-color="#48008d"/></radialGradient><radialGradient cx="258.126" cy="171.585" r="2.483" gradientUnits="userSpaceOnUse" id="e"><stop offset="0" stop-color="#8300a6"/><stop offset="1" stop-color="#3f0058"/></radialGradient><radialGradient cx="240.133" cy="175.904" r="3.833" gradientUnits="userSpaceOnUse" id="f"><stop offset="0" stop-color="#25003f"/><stop offset="1" stop-color="#4c0081"/></radialGradient><radialGradient cx="221.701" cy="171.827" r="2.483" gradientUnits="userSpaceOnUse" id="g"><stop offset="0" stop-color="#8300a6"/><stop offset="1" stop-color="#3f0058"/></radialGradient><linearGradient x1="258.379" y1="164.591" x2="258.376" y2="171.405" gradientUnits="userSpaceOnUse" id="a"><stop offset="0" stop-color="#270042" stop-opacity="0"/><stop offset="1" stop-color="#270042"/></linearGradient><linearGradient x1="221.782" y1="165.013" x2="221.779" y2="171.826" gradientUnits="userSpaceOnUse" id="b"><stop offset="0" stop-color="#270042" stop-opacity="0"/><stop offset="1" stop-color="#270042"/></linearGradient><linearGradient x1="240.277" y1="156.838" x2="240.268" y2="176.647" gradientUnits="userSpaceOnUse" id="c"><stop offset="0" stop-color="#270042" stop-opacity="0"/><stop offset="1" stop-color="#270042"/></linearGradient></defs><g data-paper-data="{&quot;isPaintingLayer&quot;:true}" fill="none" stroke-width="none" stroke-linecap="none" stroke-miterlimit="10" font-family="none" font-weight="none" font-size="none" text-anchor="none" style="mix-blend-mode:normal"><path d="m255.968 164.626 4.822-.033-.066 6.813-4.696-.002z" data-paper-data="{&quot;origPos&quot;:null,&quot;origRot&quot;:0}" fill="url(#a)" transform="translate(-218.838 -156.839)"/><path d="m219.37 165.048 4.824-.034-.067 6.813-4.696-.002z" data-paper-data="{&quot;origPos&quot;:null,&quot;origRot&quot;:0}" fill="url(#b)" transform="translate(-218.838 -156.839)"/><path d="m237.865 156.942 4.823-.103-.072 19.809-4.696-.002z" data-paper-data="{&quot;origPos&quot;:null,&quot;origRot&quot;:0}" fill="url(#c)" transform="translate(-218.838 -156.839)"/><path d="m32.16 19.062 4.729-4.253 4.902.377-1.047 12.02z" data-paper-data="{&quot;origPos&quot;:null,&quot;index&quot;:null,&quot;origRot&quot;:0}" fill="#272727" stroke="#000" stroke-width=".5" stroke-linecap="round"/><path d="m32.062 18.964 5.302 5.058L21.3 34.27 5.54 23.72l4.717-4.91z" data-paper-data="{&quot;origPos&quot;:null,&quot;origRot&quot;:0}" fill="#3b3b3b" stroke="#000" stroke-width=".5" stroke-linecap="round"/><path d="m10.696 24.64 21.216.18-6.786 19.196s2.067-14.715-3.922-14.713c-5.989.002-3.623 14.716-3.623 14.716z" data-paper-data="{&quot;origPos&quot;:null,&quot;origRot&quot;:0}" fill="#111" stroke="#000" stroke-width=".5" stroke-linecap="round"/><path d="M30.965 25.26s-5.213 2.273-6.392 5.286c-1.728 4.416-3.368 10.875-3.368 10.875h0s-2.068-6.784-3.823-10.963c-1.407-3.35-5.676-5.28-5.676-5.28z" data-paper-data="{&quot;origPos&quot;:null,&quot;origRot&quot;:0}" stroke="#2d0051" stroke-width=".5" stroke-linecap="round"/><path d="m10.807 18.805.001-1.866s1.566.926 2.496.927c1.072 0 2.635-.925 2.635-.925l-.001 1.866z" data-paper-data="{&quot;origPos&quot;:null,&quot;origRot&quot;:0}" fill="#272727" stroke="#000" stroke-width=".5" stroke-linecap="butt"/><path d="m242.785 192.538-2.82 4.93-2.631-4.932s-.364-8.66 2.729-8.659c3.093.001 2.722 8.661 2.722 8.661z" data-paper-data="{&quot;origPos&quot;:null,&quot;origRot&quot;:0}" fill="url(#d)" stroke="#2d0051" stroke-width=".5" stroke-linecap="butt" transform="translate(-218.838 -156.839)"/><path d="m255.67 171.96.083-1.276 4.935.319-.084 1.276z" data-paper-data="{&quot;origPos&quot;:null,&quot;origRot&quot;:0}" fill="url(#e)" stroke="#000" stroke-width=".5" stroke-linecap="butt" transform="translate(-218.838 -156.839)"/><path d="M26.467 18.918v-1.866s1.678.926 2.608.927c1.072 0 2.523-.924 2.523-.924v1.865z" data-paper-data="{&quot;origPos&quot;:null,&quot;origRot&quot;:0}" fill="#272727" stroke="#000" stroke-width=".5" stroke-linecap="butt"/><path d="M240.257 174.843c2.108.08 3.8.76 3.778 1.517-.022.757-1.748 1.305-3.856 1.225-2.108-.081-3.8-.76-3.778-1.517.021-.758 1.748-1.306 3.856-1.225z" data-paper-data="{&quot;origPos&quot;:null,&quot;origRot&quot;:0}" fill="url(#f)" stroke="#000" stroke-width=".5" stroke-linecap="butt" transform="translate(-218.838 -156.839)"/><path d="M2.2 27.546.386 15.616l4.868-.684 4.99 3.946z" data-paper-data="{&quot;origPos&quot;:null,&quot;index&quot;:null,&quot;origRot&quot;:0}" fill="#272727" stroke="#000" stroke-width=".5" stroke-linecap="round"/><path d="m219.26 172.637-.146-1.27 4.914-.552.145 1.271z" data-paper-data="{&quot;origPos&quot;:null,&quot;origRot&quot;:0,&quot;index&quot;:null}" fill="url(#g)" stroke="#000" stroke-width=".5" stroke-linecap="butt" transform="translate(-218.838 -156.839)"/></g></svg>